<?xml version="1.0" standalone="no"?>
<!DOCTYPE svg PUBLIC "-//W3C//DTD SVG 20010904//EN"
 "http://www.w3.org/TR/2001/REC-SVG-20010904/DTD/svg10.dtd">
<svg version="1.0" xmlns="http://www.w3.org/2000/svg"
 width="300.000000pt" height="300.000000pt" viewBox="0 0 300.000000 300.000000"
 preserveAspectRatio="xMidYMid meet">
<metadata>
Created by potrace 1.10, written by Peter Selinger 2001-2011
</metadata>
<g transform="translate(0.000000,300.000000) scale(0.100000,-0.100000)"
fill="#000000" stroke="none">
<path d="M948 1832 c-606 -605 -648 -649 -648 -681 0 -30 12 -46 89 -124 88
-88 91 -90 128 -84 34 6 103 72 675 644 672 672 668 667 637 724 -15 30 -127
142 -156 157 -60 32 -37 53 -725 -636z m788 536 c63 -63 72 -77 67 -101 -4
-19 -183 -204 -635 -657 -552 -551 -634 -630 -660 -630 -23 0 -45 14 -95 62
-73 71 -89 99 -72 131 7 12 292 302 635 645 568 567 626 622 655 622 27 0 45
-12 105 -72z"/>
<path d="M1723 1747 c-133 -133 -162 -83 325 -569 484 -485 437 -457 563 -331
82 83 99 116 80 161 -7 16 -191 207 -410 425 -474 474 -425 446 -558 314z
m544 -349 c360 -360 402 -406 397 -428 -10 -38 -139 -165 -171 -168 -23 -2
-80 51 -409 379 -209 210 -389 394 -398 410 -23 39 -16 56 52 125 61 63 88 82
112 83 8 1 196 -180 417 -401z"/>
<path d="M1053 1077 c-387 -386 -367 -346 -235 -479 129 -129 108 -136 367
122 129 128 218 210 230 210 12 0 92 -73 205 -185 184 -182 187 -185 229 -185
40 0 48 5 117 73 78 78 95 107 87 149 -3 16 -106 127 -302 322 -289 288 -298
296 -336 296 -39 0 -48 -8 -362 -323z m677 4 c238 -237 290 -294 290 -316 0
-20 -18 -45 -66 -95 -64 -67 -103 -87 -134 -70 -8 5 -92 84 -186 178 -102 101
-181 172 -197 176 -45 11 -83 -18 -257 -193 -174 -176 -224 -221 -246 -221
-18 0 -142 117 -158 149 -9 16 -11 34 -6 47 8 19 489 507 588 597 23 20 51 37
62 37 12 0 127 -107 310 -289z"/>
</g>
</svg>
